<?xml version="1.0" standalone="no"?>
<!DOCTYPE svg PUBLIC "-//W3C//DTD SVG 20010904//EN"
 "http://www.w3.org/TR/2001/REC-SVG-20010904/DTD/svg10.dtd">
<svg version="1.0" xmlns="http://www.w3.org/2000/svg"
 width="352.000000pt" height="143.000000pt" viewBox="0 0 352.000000 143.000000"
 preserveAspectRatio="xMidYMid meet">

<g transform="translate(0.000000,143.000000) scale(0.100000,-0.100000)"
fill="#000000" stroke="none">
<path d="M669 1310 c-94 -16 -154 -89 -154 -186 0 -111 62 -171 200 -193 47
-7 82 -19 109 -38 110 -77 115 -245 10 -331 -36 -30 -71 -41 -177 -57 -72 -11
-147 -105 -147 -185 0 -72 51 -145 122 -175 54 -22 99 -19 159 13 60 31 99 90
99 151 0 85 42 166 102 197 17 9 60 20 96 25 110 16 175 75 188 172 6 38 2 56
-20 101 -33 67 -72 93 -158 107 -87 13 -94 17 -134 51 -48 42 -62 73 -73 161
-10 81 -30 121 -80 156 -36 26 -96 39 -142 31z"/>
<path d="M235 894 c-73 -38 -105 -91 -105 -175 0 -75 34 -129 102 -163 28 -14
63 -26 77 -26 110 0 201 91 201 201 0 48 -49 127 -94 154 -51 30 -134 34 -181
9z"/>
<path d="M1478 720 l3 -190 98 3 c88 2 102 5 139 30 52 34 82 91 82 156 0 61
-13 97 -48 134 -46 48 -73 57 -179 57 l-98 0 3 -190z m193 117 c69 -46 76
-152 14 -214 -29 -29 -40 -33 -84 -33 l-51 0 0 135 0 135 44 0 c28 0 55 -8 77
-23z"/>
<path d="M1880 721 l0 -189 110 -1 110 -2 0 31 0 30 -75 0 -75 0 0 60 0 60 70
0 c68 0 70 1 70 25 0 24 -2 25 -70 25 l-70 0 0 50 0 49 73 3 c66 3 72 5 75 26
3 22 2 22 -107 22 l-111 0 0 -189z"/>
<path d="M2180 721 l0 -190 110 1 110 1 0 28 0 29 -75 0 -75 0 0 148 c0 157
-4 172 -47 172 l-23 0 0 -189z"/>
<path d="M2470 722 l0 -190 110 -1 110 0 0 30 0 29 -75 0 -74 0 -3 158 -3 157
-32 3 -33 3 0 -189z"/>
<path d="M2740 757 c0 -150 0 -153 26 -180 33 -35 66 -48 125 -49 53 0 98 20
128 58 19 24 21 40 21 175 l0 149 -35 0 -35 0 0 -140 c0 -136 -1 -142 -25
-165 -30 -31 -73 -32 -109 -4 -26 20 -26 22 -26 145 0 136 -8 164 -45 164
l-25 0 0 -153z"/>
<path d="M3100 885 c0 -24 3 -25 55 -25 l55 0 0 -164 0 -164 35 0 35 0 0 164
0 164 43 0 c43 0 67 13 67 37 0 10 -33 13 -145 13 l-145 0 0 -25z"/>
<path d="M1487 373 c-10 -19 -8 -103 3 -103 6 0 10 6 9 13 -3 28 2 36 29 40
l27 4 -27 2 c-21 1 -28 6 -28 20 0 14 8 21 28 24 26 4 25 4 -5 6 -17 0 -34 -2
-36 -6z"/>
<path d="M1680 325 c0 -32 2 -56 4 -54 8 7 10 98 3 105 -4 4 -7 -19 -7 -51z"/>
<path d="M1925 373 c11 -3 27 -10 35 -17 13 -10 13 -9 1 7 -7 9 -23 16 -35 16
-20 -1 -20 -2 -1 -6z"/>
<path d="M2097 373 c-10 -10 -8 -103 2 -103 4 0 6 11 4 24 -4 22 -1 25 28 29
l34 4 -32 1 c-25 2 -33 7 -33 21 0 15 8 21 33 24 l32 4 -31 1 c-17 1 -34 -1
-37 -5z"/>
<path d="M2292 325 c1 -53 2 -55 5 -15 l4 45 20 -25 c24 -29 10 3 -15 35 -14
19 -15 16 -14 -40z"/>
<path d="M2363 340 c0 -25 2 -35 4 -22 2 12 2 32 0 45 -2 12 -4 2 -4 -23z"/>
<path d="M2503 325 c0 -33 2 -48 4 -32 4 23 9 27 38 27 29 0 34 -4 38 -27 2
-16 4 -3 4 27 0 30 -2 45 -4 33 -4 -19 -11 -23 -38 -23 -29 0 -34 4 -38 28 -2
15 -4 0 -4 -33z"/>
<path d="M2746 347 c-7 -19 -17 -45 -20 -58 -6 -20 -5 -21 4 -6 6 9 22 17 35
17 13 0 29 -8 34 -17 8 -14 10 -15 10 -3 0 8 -7 26 -15 40 -8 14 -13 17 -10 8
4 -14 0 -18 -19 -18 -22 0 -24 2 -13 25 6 13 15 22 19 19 5 -3 9 -1 9 5 0 26
-21 18 -34 -12z"/>
<path d="M2957 373 c-4 -3 -6 -29 -6 -57 1 -30 4 -40 6 -23 4 22 9 28 26 25
13 -2 24 -13 28 -28 4 -17 6 -9 6 25 0 28 -5 53 -11 57 -14 10 -41 10 -49 1z
m51 -25 c3 -13 -3 -18 -22 -18 -20 0 -26 5 -26 21 0 15 5 20 22 17 13 -2 24
-11 26 -20z"/>
<path d="M3153 325 c0 -33 2 -45 4 -27 2 18 2 45 0 60 -2 15 -4 0 -4 -33z"/>
<path d="M3333 365 c-6 -11 -18 -38 -27 -60 -17 -39 -16 -39 2 -20 11 11 17
25 15 30 -2 6 3 19 11 30 13 18 14 18 21 -4 5 -16 3 -26 -6 -32 -11 -7 -10 -9
3 -9 9 0 22 -8 27 -17 18 -32 10 1 -13 52 -20 45 -23 48 -33 30z"/>
<path d="M1750 328 l0 -43 -21 33 c-29 45 -34 40 -7 -8 13 -22 28 -40 34 -40
6 0 12 22 13 50 1 28 -3 50 -9 50 -5 0 -10 -19 -10 -42z"/>
<path d="M1883 355 c-3 -9 -3 -18 -1 -21 3 -3 8 4 11 16 6 23 -1 27 -10 5z"/>
<path d="M1879 298 c4 -12 14 -24 20 -26 8 -3 7 5 -4 22 -21 32 -27 33 -16 4z"/>
<path d="M1958 295 c-3 -14 -1 -25 3 -25 5 0 9 11 9 25 0 14 -2 25 -4 25 -2 0
-6 -11 -8 -25z"/>
<path d="M2347 284 c3 -7 9 -14 14 -14 14 0 10 17 -5 23 -10 4 -13 1 -9 -9z"/>
</g>
</svg>
